<?xml version="1.0" standalone="no"?>
<!DOCTYPE svg PUBLIC "-//W3C//DTD SVG 20010904//EN"
 "http://www.w3.org/TR/2001/REC-SVG-20010904/DTD/svg10.dtd">
<svg version="1.0" xmlns="http://www.w3.org/2000/svg"
 width="500.000000pt" height="500.000000pt" viewBox="0 0 500.000000 500.000000"
 preserveAspectRatio="xMidYMid meet">
<metadata>
Created by potrace 1.11, written by Peter Selinger 2001-2013
</metadata>
<g transform="translate(0.000000,500.000000) scale(0.100000,-0.100000)"
fill="#000000" stroke="none">
<path d="M0 2500 l0 -2500 2500 0 2500 0 0 2500 0 2500 -1242 0 -1243 0 1233
-1233 1232 -1232 -1238 -1238 -1237 -1237 -1235 1235 -1235 1235 1228 1228
c675 675 1227 1230 1227 1235 0 4 -560 7 -1245 7 l-1245 0 0 -2500z"/>
<path d="M1345 3690 l-1160 -1160 1163 -1163 1162 -1162 1162 1162 1163 1163
-1160 1160 c-638 638 -1162 1160 -1165 1160 -3 0 -527 -522 -1165 -1160z m737
-328 c61 -26 82 -66 76 -139 -4 -44 -11 -60 -38 -88 -19 -19 -39 -35 -44 -35
-6 0 -17 -4 -25 -9 -10 -6 7 -36 73 -125 l86 -116 -43 0 -42 0 -79 110 c-77
107 -81 110 -118 110 l-38 0 0 -110 0 -110 -40 0 -40 0 0 263 c0 145 3 267 8
271 4 5 55 6 113 3 76 -3 118 -10 151 -25z m1040 -1045 c94 -40 104 -169 18
-224 l-30 -19 40 -18 c69 -30 89 -104 48 -177 -36 -64 -80 -79 -231 -79 l-127
0 0 271 0 272 123 -5 c79 -3 135 -11 159 -21z"/>
<path d="M1890 3227 l0 -103 77 7 c67 5 79 9 100 33 25 29 31 83 12 118 -15
28 -70 48 -134 48 l-55 0 0 -103z"/>
<path d="M2912 2189 c3 -108 3 -107 106 -94 99 12 143 88 89 151 -22 25 -31
28 -111 32 l-87 5 3 -94z"/>
<path d="M2910 1950 l0 -90 89 0 c80 0 93 3 118 24 22 19 28 32 28 66 0 34 -6
47 -28 66 -25 21 -38 24 -118 24 l-89 0 0 -90z"/>
</g>
</svg>
